<?xml version="1.0" encoding="utf-8"?>
<svg xmlns="http://www.w3.org/2000/svg" xmlns:xlink="http://www.w3.org/1999/xlink" width="396pt" height="230.4pt" viewBox="0 0 396 230.4" version="1.1">
<style type="text/css">.s0{stroke:#000000;stroke-width:0.8}.s1{fill:none;stroke:#b0b0b0;stroke-opacity:0.3;stroke-width:0.8;stroke-linecap:square}.s2{font-size:10px;font-family:sans-serif;text-anchor:middle}.s3{fill:#2a9d8f;stroke:#2a9d8f;stroke-linejoin:miter}.s4{font-size:10px;font-family:sans-serif;text-anchor:end}.s5{fill:none;stroke:#000000;stroke-width:0.8;stroke-linejoin:miter;stroke-linecap:square}.s6{fill:#ffffff}.s7{fill:none;stroke:#2a9d8f;stroke-width:1.5;stroke-linecap:square}.s8{fill:none;stroke-dasharray:3.7,1.6;stroke-dashoffset:0;stroke:#555555}.s9{font-size:8px;font-family:sans-serif;text-anchor:start}</style>
<defs>
<style type="text/css">*{stroke-linejoin: round; stroke-linecap: butt}</style>
</defs>
<path d="M 0 230.4 L 396 230.4 L 396 0 L 0 0 z" class="s6"/>
<path d="M 48 188.3 L 385.2 188.3 L 385.2 26.2 L 48 26.2 z" class="s6"/>
<path d="M 63.3 188.3 L 63.3 26.2" class="s1"/>
<defs>
<path id="m9a180b2db6" d="M 0 0 L 0 3.5" class="s0"/>
</defs>
<use xlink:href="#m9a180b2db6" x="63.3" y="188.3" class="s0"/>
<text x="63.3" y="202.9" class="s2">1</text>
<path d="M 107.1 188.3 L 107.1 26.2" class="s1"/>
<use xlink:href="#m9a180b2db6" x="107.1" y="188.3" class="s0"/>
<text x="107.1" y="202.9" class="s2">2</text>
<path d="M 150.9 188.3 L 150.9 26.2" class="s1"/>
<use xlink:href="#m9a180b2db6" x="150.9" y="188.3" class="s0"/>
<text x="150.9" y="202.9" class="s2">3</text>
<path d="M 194.7 188.3 L 194.7 26.2" class="s1"/>
<use xlink:href="#m9a180b2db6" x="194.7" y="188.3" class="s0"/>
<text x="194.7" y="202.9" class="s2">4</text>
<path d="M 238.5 188.3 L 238.5 26.2" class="s1"/>
<use xlink:href="#m9a180b2db6" x="238.5" y="188.3" class="s0"/>
<text x="238.5" y="202.9" class="s2">5</text>
<path d="M 282.3 188.3 L 282.3 26.2" class="s1"/>
<use xlink:href="#m9a180b2db6" x="282.3" y="188.3" class="s0"/>
<text x="282.3" y="202.9" class="s2">6</text>
<path d="M 326.1 188.3 L 326.1 26.2" class="s1"/>
<use xlink:href="#m9a180b2db6" x="326.1" y="188.3" class="s0"/>
<text x="326.1" y="202.9" class="s2">7</text>
<path d="M 369.9 188.3 L 369.9 26.2" class="s1"/>
<use xlink:href="#m9a180b2db6" x="369.9" y="188.3" class="s0"/>
<text x="369.9" y="202.9" class="s2">8</text>
<text x="216.6" y="216.9" class="s2">draft length gamma</text>
<path d="M 48 180.9 L 385.2 180.9" class="s1"/>
<defs>
<path id="med489c476e" d="M 0 0 L -3.5 0" class="s0"/>
</defs>
<use xlink:href="#med489c476e" x="48" y="180.9" class="s0"/>
<text x="41" y="184.7" class="s4">1.0</text>
<path d="M 48 154 L 385.2 154" class="s1"/>
<use xlink:href="#med489c476e" x="48" y="154" class="s0"/>
<text x="41" y="157.8" class="s4">1.1</text>
<path d="M 48 127 L 385.2 127" class="s1"/>
<use xlink:href="#med489c476e" x="48" y="127" class="s0"/>
<text x="41" y="130.8" class="s4">1.2</text>
<path d="M 48 100 L 385.2 100" class="s1"/>
<use xlink:href="#med489c476e" x="48" y="100" class="s0"/>
<text x="41" y="103.8" class="s4">1.3</text>
<path d="M 48 73.1 L 385.2 73.1" class="s1"/>
<use xlink:href="#med489c476e" x="48" y="73.1" class="s0"/>
<text x="41" y="76.9" class="s4">1.4</text>
<path d="M 48 46.1 L 385.2 46.1" class="s1"/>
<use xlink:href="#med489c476e" x="48" y="46.1" class="s0"/>
<text x="41" y="49.9" class="s4">1.5</text>
<text x="18.7" y="107.2" transform="rotate(-90 18.7 107.2)" class="s2">speedup (vanilla FLOPs / speculative FLOPs)</text>
<path d="M 63.3 82.4 L 107.1 44.6 L 150.9 40.2 L 194.7 33.5 L 238.5 58.5 L 282.3 89.8 L 369.9 89.8" class="s7"/>
<defs>
<path id="m55507e59f6" d="M -3 3 L 3 3 L 3 -3 L -3 -3 z" style="stroke: #2a9d8f; stroke-linejoin: miter"/>
</defs>
<use xlink:href="#m55507e59f6" x="63.3" y="82.4" class="s3"/>
<use xlink:href="#m55507e59f6" x="107.1" y="44.6" class="s3"/>
<use xlink:href="#m55507e59f6" x="150.9" y="40.2" class="s3"/>
<use xlink:href="#m55507e59f6" x="194.7" y="33.5" class="s3"/>
<use xlink:href="#m55507e59f6" x="238.5" y="58.5" class="s3"/>
<use xlink:href="#m55507e59f6" x="282.3" y="89.8" class="s3"/>
<use xlink:href="#m55507e59f6" x="369.9" y="89.8" class="s3"/>
<path d="M 48 180.9 L 385.2 180.9" class="s8"/>
<path d="M 48 188.3 L 48 26.2" class="s5"/>
<path d="M 385.2 188.3 L 385.2 26.2" class="s5"/>
<path d="M 48 188.3 L 385.2 188.3" class="s5"/>
<path d="M 47.6 26.2 L 385.2 26.2" class="s5"/>
<text style="font-size: 12px; font-family: sans-serif; text-anchor: middle" x="216.6" y="20.2">FLOP speedup vs draft length gamma</text>
<path d="M 297.2 56.6 L 379.6 56.6 Q 381.2 56.6 381.2 55 L 381.2 31.8 Q 381.2 30.2 379.6 30.2 L 297.2 30.2 Q 295.6 30.2 295.6 31.8 L 295.6 55 Q 295.6 56.6 297.2 56.6 z" style="fill: #ffffff; opacity: 0.8; stroke: #cccccc; stroke-linejoin: miter"/>
<path d="M 298.8 36.6 L 306.8 36.6 L 314.8 36.6" class="s7"/>
<use xlink:href="#m55507e59f6" x="306.8" y="36.6" class="s3"/>
<text x="321.2" y="39.4" class="s9">FLOP speedup</text>
<path d="M 298.8 48.6 L 306.8 48.6 L 314.8 48.6" class="s8"/>
<text x="321.2" y="51.4" class="s9">vanilla (=1)</text>
</svg>
